{"title":"JAZBAA (2015) - 1CD - DesiSCR-Rip - Hindi - x264 - MP3 - Mafiaki","uid":12543153,"size":738434069,"categoryP":"video","categoryS":"movies","magnet":"?xt=urn:btih:7643f22b709ee8129f29cb3292bc5b9abab107bf&amp;dn=JAZBAA+%282015%29+-+1CD+-+DesiSCR-Rip+-+Hindi+-+x264+-+MP3+-+Mafiaki&amp;tr=udp%3A%2F%2Ftracker.leechers-paradise.org%3A6969&amp;tr=udp%3A%2F%2Fzer0day.ch%3A1337&amp;tr=udp%3A%2F%2Fopen.demonii.com%3A1337&amp;tr=udp%3A%2F%2Ftracker.coppersurfer.tk%3A6969&amp;tr=udp%3A%2F%2Fexodus.desync.com%3A6969","seeders":18,"leechers":1,"uploader":"makintos13","files":3,"time":1444427509,"description":"JAZBAA (2015) - 1CD - DesiSCR-Rip - Hindi - x264 - MP3 - Mafiaki\r\n\r\nScreens:\r\n \nhttp://imgmak.com/cX\r\n \nhttp://imgmak.com/nC\r\n \nhttp://imgmak.com/nK\r\n \nhttp://imgmak.com/nT\r\n \nhttp://imgmak.com/na\r\n \nhttp://imgmak.com/np\r\n\r\n::::::\r\n\r\nFormat : Matroska\r\nFormat version : Version 4 / Version 2\r\nFile size : 698 MiB\r\nDuration : 1h 52mn\r\nOverall bit rate : 867 Kbps\r\nMovie name : JAZBAA (2015) - 1CD - DesiSCR-Rip - Hindi - x264 - MP3 - Mafiaking - M2Tv ExClusive\r\nEncoded date : UTC 2015-10-09 18:41:19\r\nWriting application : mkvmerge v7.6.0 ('Garden of Dreams') 64bit built on Feb 8 2015 13:04:34\r\nWriting library : libebml v1.3.1 + libmatroska v1.4.2\r\nVideo\r\nID : 1\r\nFormat : AVC\r\nFormat/Info : Advanced Video Codec\r\nFormat profile :   \r\nFormat settings, CABAC : Yes\r\nFormat settings, ReFrames : 4 frames\r\nCodec ID : V_MPEG4/ISO/AVC\r\nDuration : 1h 52mn\r\nBit rate : 801 Kbps\r\nWidth : 640 pixels\r\nHeight : 272 pixels\r\nDisplay aspect ratio : 2.35:1\r\nFrame rate mode : Constant\r\nFrame rate : 25.000 fps\r\nColor space : YUV\r\nChroma subsampling : 4:2:0\r\nBit depth : 8 bits\r\nScan type : Progressive\r\nBits/(Pixel*Frame) : 0.184\r\nStream size : 633 MiB (91%)\r\nTitle : Mafiaking\r\nLanguage : Hindi\r\nDefault : Yes\r\nForced : No\r\n\r\nAudio\r\nID : 2\r\nFormat : MPEG Audio\r\nFormat version : Version 2\r\nFormat profile : Layer 3\r\nMode : Joint stereo\r\nMode extension : MS Stereo\r\nCodec ID : A_MPEG/L3\r\nCodec ID/Hint : MP3\r\nDuration : 1h 52mn\r\nBit rate mode : Constant\r\nBit rate : 64.0 Kbps\r\nChannel(s) : 2 channels\r\nSampling rate : 24.0 KHz\r\nCompression mode : Lossy\r\nStream size : 51.6 MiB (7%)\r\nTitle : Mafiaking\r\nWriting library : LAME3.99r\r\nLanguage : Hindi\r\nDefault : Yes\r\nForced : No","torrent":{"xt":"urn:btih:7643f22b709ee8129f29cb3292bc5b9abab107bf","amp;dn":"JAZBAA+%282015%29+-+1CD+-+DesiSCR-Rip+-+Hindi+-+x264+-+MP3+-+Mafiaki","amp;tr":["udp%3A%2F%2Ftracker.leechers-paradise.org%3A6969","udp%3A%2F%2Fzer0day.ch%3A1337","udp%3A%2F%2Fopen.demonii.com%3A1337","udp%3A%2F%2Ftracker.coppersurfer.tk%3A6969","udp%3A%2F%2Fexodus.desync.com%3A6969"],"infoHash":"7643f22b709ee8129f29cb3292bc5b9abab107bf","infoHashBuffer":{"type":"Buffer","data":[118,67,242,43,112,158,232,18,159,41,203,50,146,188,91,154,186,177,7,191]},"announce":[],"urlList":[]}}